<?xml version="1.0" encoding="UTF-8" standalone="no"?>
<!-- Created with Inkscape (http://www.inkscape.org/) -->

<svg
   version="1.1"
   id="svg25"
   xml:space="preserve"
   width="1219.3846"
   height="1311.3617"
   viewBox="0 0 1219.3846 1311.3617"
   sodipodi:docname="sachanews.svg"
   inkscape:version="1.1.2 (0a00cf5339, 2022-02-04)"
   xmlns:inkscape="http://www.inkscape.org/namespaces/inkscape"
   xmlns:sodipodi="http://sodipodi.sourceforge.net/DTD/sodipodi-0.dtd"
   xmlns="http://www.w3.org/2000/svg"
   xmlns:svg="http://www.w3.org/2000/svg"><defs
     id="defs29"><clipPath
       clipPathUnits="userSpaceOnUse"
       id="clipPath99"><path
         d="m 11129.2,10367.4 c 38.9,20 74.7,45.9 101.7,90.8 -31.2,-4.9 -55.7,-8.7 -83.8,-13.2 64.5,96 124,191.1 132.8,309.1 8.4,113.5 -9.9,225 -20,337.5 44.1,-112.8 63.2,-230.1 72.8,-349 14.2,-175.5 -14.8,-341.9 -113.3,-491.7 -51.9,-78.8 -117.7,-141.8 -215.8,-187.2 58.7,81.6 66,167.3 84.7,249.2 5.7,25.2 16.5,42 40.9,54.5 z"
         id="path97" /></clipPath><linearGradient
       x1="0"
       y1="0"
       x2="1"
       y2="0"
       gradientUnits="userSpaceOnUse"
       gradientTransform="matrix(1267.82,-5976.86,5976.86,1267.82,9867.66,16567.3)"
       spreadMethod="pad"
       id="linearGradient109"><stop
         style="stop-opacity:1;stop-color:#f14624"
         offset="0"
         id="stop101" /><stop
         style="stop-opacity:1;stop-color:#ed1c24"
         offset="0.344086"
         id="stop103" /><stop
         style="stop-opacity:1;stop-color:#e91167"
         offset="0.688172"
         id="stop105" /><stop
         style="stop-opacity:1;stop-color:#b31652"
         offset="1"
         id="stop107" /></linearGradient><clipPath
       clipPathUnits="userSpaceOnUse"
       id="clipPath119"><path
         d="m 9169.56,9960.7 c 25.13,5.8 44.97,3.5 66.93,-12.9 35.07,-26.2 74.03,-47.1 126.17,-51.6 -18.04,25.8 -32.25,46.2 -48.57,69.6 114.5,-15.9 226.16,-27.8 336.03,16.1 105.68,42.1 197.86,107.5 294.55,165.9 -82.05,-89.1 -179.11,-157.7 -281.73,-218.4 -151.58,-89.7 -313.8,-136.6 -491.62,-113.7 -93.53,12 -179,43.6 -262.88,111.8 99.1,-17 179.29,14.1 261.12,33.2 z"
         id="path117" /></clipPath><linearGradient
       x1="0"
       y1="0"
       x2="1"
       y2="0"
       gradientUnits="userSpaceOnUse"
       gradientTransform="matrix(1267.82,-5976.86,5976.86,1267.82,8120.1,16196.6)"
       spreadMethod="pad"
       id="linearGradient129"><stop
         style="stop-opacity:1;stop-color:#f14624"
         offset="0"
         id="stop121" /><stop
         style="stop-opacity:1;stop-color:#ed1c24"
         offset="0.344086"
         id="stop123" /><stop
         style="stop-opacity:1;stop-color:#e91167"
         offset="0.688172"
         id="stop125" /><stop
         style="stop-opacity:1;stop-color:#b31652"
         offset="1"
         id="stop127" /></linearGradient><clipPath
       clipPathUnits="userSpaceOnUse"
       id="clipPath139"><path
         d="m 11741.4,14292.3 c 140.7,-20.1 437.5,-42.9 776.2,86.2 379.5,144.7 597.8,398.7 684.1,511.7 -33.9,-80.1 -183.1,-407.1 -559.2,-581.5 -433.9,-201.3 -834.7,-43.8 -901.1,-16.4 z"
         id="path137" /></clipPath><linearGradient
       x1="0"
       y1="0"
       x2="1"
       y2="0"
       gradientUnits="userSpaceOnUse"
       gradientTransform="matrix(1267.82,-5976.86,5976.86,1267.82,11958.3,17010.8)"
       spreadMethod="pad"
       id="linearGradient149"><stop
         style="stop-opacity:1;stop-color:#f14624"
         offset="0"
         id="stop141" /><stop
         style="stop-opacity:1;stop-color:#ed1c24"
         offset="0.344086"
         id="stop143" /><stop
         style="stop-opacity:1;stop-color:#e91167"
         offset="0.688172"
         id="stop145" /><stop
         style="stop-opacity:1;stop-color:#b31652"
         offset="1"
         id="stop147" /></linearGradient><clipPath
       clipPathUnits="userSpaceOnUse"
       id="clipPath159"><path
         d="m 12388.2,15442.1 c 41,68.1 272.5,467.6 135.3,969.5 -130.6,477.8 -500.9,703.4 -575.1,746.6 92.3,-40.8 496,-231.4 652.1,-670.6 85.2,-239.6 58.9,-446.9 52.5,-491.9 -41.2,-291.4 -199,-482.1 -264.8,-553.6 z"
         id="path157" /></clipPath><linearGradient
       x1="0"
       y1="0"
       x2="1"
       y2="0"
       gradientUnits="userSpaceOnUse"
       gradientTransform="matrix(1267.82,-5976.86,5976.86,1267.82,12227.2,17067.8)"
       spreadMethod="pad"
       id="linearGradient169"><stop
         style="stop-opacity:1;stop-color:#f14624"
         offset="0"
         id="stop161" /><stop
         style="stop-opacity:1;stop-color:#ed1c24"
         offset="0.344086"
         id="stop163" /><stop
         style="stop-opacity:1;stop-color:#e91167"
         offset="0.688172"
         id="stop165" /><stop
         style="stop-opacity:1;stop-color:#b31652"
         offset="1"
         id="stop167" /></linearGradient><clipPath
       clipPathUnits="userSpaceOnUse"
       id="clipPath179"><path
         d="m 11930.9,14016.5 c 222.2,-109.4 443,-100 665.4,-24.3 l -0.6,-1 c -190.1,-209.3 -571,-200 -664.8,25.3 z"
         id="path177" /></clipPath><linearGradient
       x1="0"
       y1="0"
       x2="1"
       y2="0"
       gradientUnits="userSpaceOnUse"
       gradientTransform="matrix(1267.82,-5976.86,5976.86,1267.82,11640.2,16943.3)"
       spreadMethod="pad"
       id="linearGradient189"><stop
         style="stop-opacity:1;stop-color:#f14624"
         offset="0"
         id="stop181" /><stop
         style="stop-opacity:1;stop-color:#ed1c24"
         offset="0.344086"
         id="stop183" /><stop
         style="stop-opacity:1;stop-color:#e91167"
         offset="0.688172"
         id="stop185" /><stop
         style="stop-opacity:1;stop-color:#b31652"
         offset="1"
         id="stop187" /></linearGradient><clipPath
       clipPathUnits="userSpaceOnUse"
       id="clipPath199"><path
         d="m 10964.9,9764.2 -3.1,6.8 3.9,0.6 z"
         id="path197" /></clipPath><linearGradient
       x1="0"
       y1="0"
       x2="1"
       y2="0"
       gradientUnits="userSpaceOnUse"
       gradientTransform="matrix(1267.82,-5976.86,5976.86,1267.82,9537.02,16497.2)"
       spreadMethod="pad"
       id="linearGradient209"><stop
         style="stop-opacity:1;stop-color:#f14624"
         offset="0"
         id="stop201" /><stop
         style="stop-opacity:1;stop-color:#ed1c24"
         offset="0.344086"
         id="stop203" /><stop
         style="stop-opacity:1;stop-color:#e91167"
         offset="0.688172"
         id="stop205" /><stop
         style="stop-opacity:1;stop-color:#b31652"
         offset="1"
         id="stop207" /></linearGradient><clipPath
       clipPathUnits="userSpaceOnUse"
       id="clipPath219"><path
         d="m 12598.8,13993.2 -3.1,-2 c 0,0 0.6,1 0.6,1 0,-0.1 2.5,1 2.5,1 z"
         id="path217" /></clipPath><linearGradient
       x1="0"
       y1="0"
       x2="1"
       y2="0"
       gradientUnits="userSpaceOnUse"
       gradientTransform="matrix(1267.82,-5976.86,5976.86,1267.82,11957,17010.5)"
       spreadMethod="pad"
       id="linearGradient229"><stop
         style="stop-opacity:1;stop-color:#f14624"
         offset="0"
         id="stop221" /><stop
         style="stop-opacity:1;stop-color:#ed1c24"
         offset="0.344086"
         id="stop223" /><stop
         style="stop-opacity:1;stop-color:#e91167"
         offset="0.688172"
         id="stop225" /><stop
         style="stop-opacity:1;stop-color:#b31652"
         offset="1"
         id="stop227" /></linearGradient><clipPath
       clipPathUnits="userSpaceOnUse"
       id="clipPath239"><path
         d="m 12546.3,15056.9 c 49.1,34.2 537.1,386.7 528.9,971.6 -4.2,301.5 -138.2,522.9 -206.9,620.9 63.1,-66.4 275.9,-306.7 281.7,-661.1 6.2,-381.7 -230,-744 -603.7,-931.4 z"
         id="path237" /></clipPath><linearGradient
       x1="0"
       y1="0"
       x2="1"
       y2="0"
       gradientUnits="userSpaceOnUse"
       gradientTransform="matrix(1267.82,-5976.86,5976.86,1267.82,12515.9,17129.1)"
       spreadMethod="pad"
       id="linearGradient249"><stop
         style="stop-opacity:1;stop-color:#f14624"
         offset="0"
         id="stop241" /><stop
         style="stop-opacity:1;stop-color:#ed1c24"
         offset="0.344086"
         id="stop243" /><stop
         style="stop-opacity:1;stop-color:#e91167"
         offset="0.688172"
         id="stop245" /><stop
         style="stop-opacity:1;stop-color:#b31652"
         offset="1"
         id="stop247" /></linearGradient><clipPath
       clipPathUnits="userSpaceOnUse"
       id="clipPath259"><path
         d="m 12323.5,14463.3 c 116.1,45.4 515,218 750.3,659.7 159.8,299.9 168.8,582.4 163.8,720.1 17.4,-73.2 105,-473.9 -142.2,-866.7 -264,-419.4 -703,-501.4 -771.9,-513.1 z"
         id="path257" /></clipPath><linearGradient
       x1="0"
       y1="0"
       x2="1"
       y2="0"
       gradientUnits="userSpaceOnUse"
       gradientTransform="matrix(1267.82,-5976.86,5976.86,1267.82,12368.3,17097.8)"
       spreadMethod="pad"
       id="linearGradient269"><stop
         style="stop-opacity:1;stop-color:#f14624"
         offset="0"
         id="stop261" /><stop
         style="stop-opacity:1;stop-color:#ed1c24"
         offset="0.344086"
         id="stop263" /><stop
         style="stop-opacity:1;stop-color:#e91167"
         offset="0.688172"
         id="stop265" /><stop
         style="stop-opacity:1;stop-color:#b31652"
         offset="1"
         id="stop267" /></linearGradient><clipPath
       clipPathUnits="userSpaceOnUse"
       id="clipPath279"><path
         d="m 9073.65,12172.7 c 152.74,-13 273.22,38 364.17,159.7 65.8,88 99.79,191 109.16,297.5 7.8,88.5 -6.76,178.9 -11.47,269.8 41.74,-137.3 65.17,-275.4 37.64,-417.2 -35.27,-181.6 -125.81,-322 -307.1,-387.4 -30.3,-10.9 -51.53,-25.8 -70.69,-50.4 -70.57,-90.8 -160.46,-152.9 -285.28,-184.1 16.2,53 29.19,95.4 45.25,147.9 -23.54,-26.7 -39.22,-45.2 -51.04,-70.1 -26.96,-56.8 -56.43,-115.3 -137.23,-104 -8.04,14.4 19.26,30.2 -10.93,56 -1.08,-102.3 -109.74,-98.2 -144.71,-178.3 -7.8,248.3 228.36,480.7 462.23,460.6 z"
         id="path277" /></clipPath><linearGradient
       x1="0"
       y1="0"
       x2="1"
       y2="0"
       gradientUnits="userSpaceOnUse"
       gradientTransform="matrix(1267.82,-5976.86,5976.86,1267.82,8245.29,16223.2)"
       spreadMethod="pad"
       id="linearGradient289"><stop
         style="stop-opacity:1;stop-color:#f14624"
         offset="0"
         id="stop281" /><stop
         style="stop-opacity:1;stop-color:#ed1c24"
         offset="0.344086"
         id="stop283" /><stop
         style="stop-opacity:1;stop-color:#e91167"
         offset="0.688172"
         id="stop285" /><stop
         style="stop-opacity:1;stop-color:#b31652"
         offset="1"
         id="stop287" /></linearGradient><clipPath
       clipPathUnits="userSpaceOnUse"
       id="clipPath299"><path
         d="m 8263.72,14083.7 c -2.11,114.1 61.58,184.6 140.11,256.5 -136.57,34.1 -261.29,59.6 -382.45,96.7 -300.79,92.1 -577.65,226.6 -784.21,475.1 -92.05,110.7 -172.29,228.7 -209.62,360.1 282.85,-357.2 653.66,-555.2 1143.65,-570.2 -36.84,51.4 -72.88,58.4 -104.05,71.3 -350.38,145.1 -648.87,359 -853.15,682.2 -34.71,54.9 -79.62,134.1 -113.67,248.4 -99.6,334.5 7.05,634.7 63.83,766 -35.82,-381.8 38.13,-719.5 290.47,-1004.4 197.52,-223 428.23,-395.5 718.88,-480.1 -168.49,109 -328.29,225.8 -433.51,402.6 -105.77,177.7 -153.09,368.3 -138.19,578.6 46.38,-132 74.3,-266.2 153.77,-381.3 134.63,-194.9 322.79,-314 539.82,-395.2 191.89,-71.8 393.69,-111.8 585,-186.5 129.64,-50.5 221.22,-98.3 317.59,-166.2 71.83,-50.7 169.22,-120.6 258.14,-244.6 81.2,-113.3 120.39,-223 140.28,-296 13.27,19.9 26.9,39.4 40.78,58.7 0.03,0.1 0.04,0.1 0.04,0.1 61.44,85.1 111.64,141.9 137.98,172.5 223.39,258.8 355.69,412.1 339.19,580.6 -4,41.4 -19.3,106.9 -80.5,184 36.9,-31.4 88.2,-85.1 112.1,-163.8 41,-134.8 -23,-260.7 -86.2,-380.9 -79.67,-151.4 -131.13,-165.4 -254.41,-362.2 -3.87,-6.2 -77.5,-124.4 -127.92,-234.3 -32.5,-70.9 -71.9,-174.5 -97.51,-311.9 33.79,113.5 80.33,225.1 135.23,335.4 97.45,195.6 245.34,355.2 372.91,529.4 91.3,124.6 150.5,260.5 115.8,421.4 -32.3,150.2 -151.1,245.7 -287.08,229.1 10.15,-3.9 37.19,-15.9 53.86,-44.9 22.02,-38.3 10.13,-78.7 6.1,-90.3 -7.39,-21.2 -23.65,-47.1 -120.23,-102.7 -34.49,-19.9 -70.53,-37 -106.11,-55 -105.73,-53.2 -193.63,-122.9 -222.22,-253.9 -72.81,110 -66.69,218.5 -39.87,329.1 2.64,10.9 6.58,21.5 9.63,32.2 36.43,40.1 77.05,75.2 118,110.8 78.81,68.5 99.44,91.2 116.42,131.5 26.16,62.1 17.93,124.6 12.63,125.3 -5.04,0.8 -0.98,-55.2 -36.65,-109.9 -34.95,-53.6 -75.06,-55.4 -148.76,-118.6 -34.28,-29.4 -58.61,-57.2 -73.3,-75.4 -2.97,41.8 -2,109.6 28.02,183.2 16.85,41.3 41.51,81.2 100.58,144.2 110.16,117.3 144.23,118.4 274.48,229.8 101.66,87 176.3,189.5 188.2,337.6 60.2,-94.7 55.3,-185.4 18.3,-275.3 -20.1,-48.9 -12.8,-67.6 41.8,-64.4 92,5.4 179.2,23.5 259.3,73.6 101.1,63.4 153.4,162.6 209.1,285.4 38.2,-297.9 -77.7,-489.5 -328,-613.5 100.9,-73.9 212.6,-172.9 315.8,-304.7 26.2,-33.5 50.1,-66.8 71.7,-99.4 -40.8,10.3 -81.7,20.6 -122.5,30.9 1.8,-2.7 3.4,-5.5 5.2,-8.3 22.2,-24.3 45.2,-52.1 67.7,-83.7 50.4,-70.6 83.3,-138.1 104.9,-192.6 -16.8,8.8 -42.8,20.1 -75.4,26.6 9.7,-58.4 12.4,-119.1 9.2,-183.4 146.7,134.8 298.8,219.8 464.9,284.5 191.3,74.7 393.1,114.7 585,186.5 217,81.2 405.2,200.3 539.8,395.2 79.5,115.1 107.4,249.3 153.8,381.3 14.9,-210.3 -32.4,-400.9 -138.2,-578.6 -105.2,-176.8 -265,-293.6 -433.5,-402.6 290.6,84.6 521.3,257.1 718.9,480.1 252.3,284.9 326.3,622.6 290.4,1004.4 56.8,-131.3 163.5,-431.5 63.9,-766 -34.1,-114.3 -79,-193.5 -113.7,-248.4 -204.3,-323.2 -502.8,-537.1 -853.2,-682.2 -31.1,-12.9 -67.2,-19.9 -104,-71.3 490,15 860.8,213 1143.6,570.2 -37.3,-131.4 -117.5,-249.4 -209.6,-360.1 -206.5,-248.5 -483.4,-383 -784.2,-475.1 -121.1,-37.1 -245.9,-62.6 -382.4,-96.7 78.5,-71.9 142.2,-142.4 140.1,-256.5 -92.9,74.1 -176.7,148.9 -294.9,155.1 -6.5,-6.9 -13,-13.7 -19.5,-20.6 103.7,-108 151.5,-234.6 132.4,-390.3 -154.8,214.3 -225.4,272 -305.3,251.8 128.7,-198.6 157,-449.2 64.6,-607.4 -8.1,90.6 -29.2,172.2 -73.4,246.9 -74.4,125.9 -259.6,220.4 -391.2,198.6 -137.3,-22.8 -259.6,-151.2 -281.8,-307.1 -23.3,-163.4 35.4,-301.6 146.7,-420.2 75.7,-80.7 173.1,-129.8 281.2,-189.3 -224.7,-17.2 -386,77.9 -531.5,230.4 -9.3,-112.3 42,-188.1 104.9,-273 -113.4,11.2 -191.1,59.9 -269.3,113.2 -78.6,53.5 -115.2,139.8 -175.2,213.6 -12.7,-48.7 0.5,-87.9 15.7,-123.7 32.6,-51.4 78.4,-113.4 141.4,-174.5 184.3,-178.6 329.8,-170.3 692.4,-311.6 434.7,-169.6 713.2,-363.3 796.5,-437.3 80,-71.3 152.5,-151.3 252.5,-218.1 -171.4,-49.7 -328.2,-30.4 -480.6,32.8 -28,11.7 -49.3,42.5 -66,73.6 -48.9,90.6 -118.3,163.8 -214.1,234.8 35.5,-77.6 90.7,-130.1 92.8,-215.8 -84.1,69.5 -214.4,170.1 -385.3,274.1 -121.5,73.9 -211.8,118.1 -288.7,156.6 10.6,-7.5 21.1,-15 31.7,-22.5 177.4,-105 328.2,-240.9 468.4,-388.6 214.6,-226.3 359.4,-487.8 390.1,-803.6 16.1,-166.2 -4.7,-326.2 -89.4,-497.8 -9.8,177.7 -94.9,303.9 -160.1,437.6 -20.1,41 -24,76.2 -4.3,120.5 31.5,70.9 52.1,146.4 39.4,238.1 -37.5,-41.3 -67,-73.8 -100.9,-111.2 -13.3,152.8 -29.9,302 -87.5,439.8 -97.3,107.4 -213.8,195.3 -335,278.4 -207.8,142.6 -301.3,186 -456.2,312.3 -88.6,72.3 -213.1,187.6 -340,361.9 247.2,-393.4 470.2,-681.9 634.8,-879.2 53.8,-64.5 266.9,-308.9 391,-617.5 76,-188.8 116.8,-382.2 69.5,-606.4 -5.4,172.3 -56.7,309.4 -130.7,439.3 -75.9,133.5 -169.7,253.9 -268.4,371 -102,121 -203,243 -308.9,370.8 59.3,-87.9 119.9,-178.2 181.9,-271 24.2,-36.2 127.9,-192.3 245.4,-406.6 101.3,-184.6 144.9,-287.7 154.1,-417.1 5.5,-77 -1.2,-157.1 -22.1,-240.5 -27.1,59 -54.2,118 -89.1,194 -12.7,-102.9 2.3,-183.8 26,-260.3 28,-90.6 27.1,-176.2 1.9,-266.2 -30.3,-108.3 -31.4,-220.8 -14.3,-330.4 10.2,-65.2 0,-133.9 21.7,-183.9 -12.3,10.6 -37,28.7 -57.8,50.5 -21.3,22.3 -40,47.4 -57.7,72.8 -195.2,281.2 -159.3,967.3 -159.3,967.3 8.5,220.8 27,309.7 -11.5,472.6 -25.2,106.9 -59.6,180.4 -114.9,296.1 -63.2,131.9 -138.6,287.3 -225.4,462.1 7.9,-28.8 12.5,-43.2 15.4,-57.9 31.8,-160.7 101.7,-310.7 87.5,-484.6 -15.1,-185.9 -31.7,-369 -102,-542.1 -49.1,-121.1 -97.1,-239.1 -106.9,-373.3 -8.3,-113.5 -58.2,-220.2 -119.4,-316.9 -144.02,-227.7 -355.6,-339.4 -635.27,-359.3 78.9,123.2 120.22,246.2 145.35,374.5 8.32,42.5 30.42,52.1 69.84,55.5 92.37,8 173.86,42.9 244.53,117.1 -64.9,-4.3 -121.2,-12.8 -177.1,-10.7 -87.26,3.3 -91.39,16.1 -46.47,93.9 67.05,116 180.31,168.8 295.63,219.5 62.59,27.5 123.19,54.2 151.79,126.6 84.2,212.7 120,431 103.6,660 -23.5,328 -176.7,601.2 -351.41,867 -45.97,69.9 -91.93,139.9 -134.87,211.5 -2.57,3.3 -5.13,6.7 -7.7,10.1 1.56,-3.9 3.12,-7.8 4.69,-11.7 62.77,-158.2 94.85,-237.1 109.06,-319.2 50.59,-292.3 -5.15,-554.2 -239.56,-755.5 -39.18,-33.6 -62.52,-68 -77.2,-115.8 -54.07,-176.2 -153.38,-320.6 -322.71,-438.3 -5.88,88.6 -10.6,159.6 -16.42,247.4 -20.05,-53.5 -33.01,-90.2 -36.53,-134.2 -8.04,-100.6 -18.91,-204.9 -146.43,-234 -20.25,17 11.65,56.2 -48.28,77.6 56.65,-153.8 -108.54,-209.6 -115.31,-349.5 -153.11,367.6 68.43,850.3 430.33,953.6 236.35,67.4 387.82,212.5 454.81,446.7 48.46,169.4 40.72,343.1 -5.87,507.9 -36.01,127.5 -101.92,246.4 -158.28,369.8 -40.33,-17.6 -84.59,-30.6 -136.37,-35.7 18.9,22.1 38.77,49.4 56.54,82.4 52.09,96.9 57.93,190.7 56.54,245.2 -28.72,-48.2 -132.31,-208.1 -333.53,-266.6 -81.49,-23.7 -154.27,-23.5 -206.08,-18.4 108.06,59.5 205.5,108.6 281.21,189.3 84.09,89.7 138.07,190.5 149.42,304.9 -4.01,53.4 -8.01,106.7 -12.01,160 -36.9,135.2 -148.61,241.9 -272.56,262.4 -131.55,21.8 -316.75,-72.7 -391.2,-198.6 -44.16,-74.7 -65.3,-156.3 -73.36,-246.9 -92.4,158.2 -64.13,408.8 64.54,607.4 -79.83,20.2 -150.45,-37.5 -305.26,-251.8 -19.15,155.7 28.74,282.3 132.39,390.3 -6.47,6.9 -12.98,13.7 -19.48,20.6 -118.23,-6.2 -202,-81 -294.89,-155.1 z"
         id="path297" /></clipPath><linearGradient
       x1="0"
       y1="0"
       x2="1"
       y2="0"
       gradientUnits="userSpaceOnUse"
       gradientTransform="matrix(1267.82,-5976.86,5976.86,1267.82,9800.52,16553.1)"
       spreadMethod="pad"
       id="linearGradient309"><stop
         style="stop-opacity:1;stop-color:#f14624"
         offset="0"
         id="stop301" /><stop
         style="stop-opacity:1;stop-color:#ed1c24"
         offset="0.344086"
         id="stop303" /><stop
         style="stop-opacity:1;stop-color:#e91167"
         offset="0.688172"
         id="stop305" /><stop
         style="stop-opacity:1;stop-color:#b31652"
         offset="1"
         id="stop307" /></linearGradient><clipPath
       clipPathUnits="userSpaceOnUse"
       id="clipPath319"><path
         d="m 7482.43,14378.5 c 338.7,-129.1 635.43,-106.3 776.14,-86.2 -66.32,-27.4 -467.16,-184.9 -901.11,16.4 -376.08,174.4 -525.28,501.4 -559.18,581.5 86.33,-113 304.6,-367 684.15,-511.7 z"
         id="path317" /></clipPath><linearGradient
       x1="0"
       y1="0"
       x2="1"
       y2="0"
       gradientUnits="userSpaceOnUse"
       gradientTransform="matrix(1267.82,-5976.86,5976.86,1267.82,7228.02,16007.4)"
       spreadMethod="pad"
       id="linearGradient329"><stop
         style="stop-opacity:1;stop-color:#f14624"
         offset="0"
         id="stop321" /><stop
         style="stop-opacity:1;stop-color:#ed1c24"
         offset="0.344086"
         id="stop323" /><stop
         style="stop-opacity:1;stop-color:#e91167"
         offset="0.688172"
         id="stop325" /><stop
         style="stop-opacity:1;stop-color:#b31652"
         offset="1"
         id="stop327" /></linearGradient><clipPath
       clipPathUnits="userSpaceOnUse"
       id="clipPath339"><path
         d="m 7476.52,16411.6 c -137.19,-501.9 94.3,-901.4 135.27,-969.5 -65.8,71.5 -223.55,262.2 -264.83,553.6 -6.37,45 -32.63,252.3 52.51,491.9 156.09,439.2 559.8,629.8 652.13,670.6 -74.22,-43.2 -444.51,-268.8 -575.08,-746.6 z"
         id="path337" /></clipPath><linearGradient
       x1="0"
       y1="0"
       x2="1"
       y2="0"
       gradientUnits="userSpaceOnUse"
       gradientTransform="matrix(1267.82,-5976.86,5976.86,1267.82,7793.46,16127.3)"
       spreadMethod="pad"
       id="linearGradient349"><stop
         style="stop-opacity:1;stop-color:#f14624"
         offset="0"
         id="stop341" /><stop
         style="stop-opacity:1;stop-color:#ed1c24"
         offset="0.344086"
         id="stop343" /><stop
         style="stop-opacity:1;stop-color:#e91167"
         offset="0.688172"
         id="stop345" /><stop
         style="stop-opacity:1;stop-color:#b31652"
         offset="1"
         id="stop347" /></linearGradient><clipPath
       clipPathUnits="userSpaceOnUse"
       id="clipPath359"><path
         d="m 8069.13,14016.5 c -93.8,-225.3 -474.73,-234.6 -664.88,-25.3 l -0.58,1 c 222.38,-75.7 443.26,-85.1 665.46,24.3 z"
         id="path357" /></clipPath><linearGradient
       x1="0"
       y1="0"
       x2="1"
       y2="0"
       gradientUnits="userSpaceOnUse"
       gradientTransform="matrix(1267.82,-5976.86,5976.86,1267.82,7307.91,16024.3)"
       spreadMethod="pad"
       id="linearGradient369"><stop
         style="stop-opacity:1;stop-color:#f14624"
         offset="0"
         id="stop361" /><stop
         style="stop-opacity:1;stop-color:#ed1c24"
         offset="0.344086"
         id="stop363" /><stop
         style="stop-opacity:1;stop-color:#e91167"
         offset="0.688172"
         id="stop365" /><stop
         style="stop-opacity:1;stop-color:#b31652"
         offset="1"
         id="stop367" /></linearGradient><clipPath
       clipPathUnits="userSpaceOnUse"
       id="clipPath379"><path
         d="m 7404.25,13991.2 -3.01,2 c 0,0 2.48,-1.1 2.45,-1 -0.02,0 0.56,-1 0.56,-1 z"
         id="path377" /></clipPath><linearGradient
       x1="0"
       y1="0"
       x2="1"
       y2="0"
       gradientUnits="userSpaceOnUse"
       gradientTransform="matrix(1267.82,-5976.86,5976.86,1267.82,6986.16,15956.1)"
       spreadMethod="pad"
       id="linearGradient389"><stop
         style="stop-opacity:1;stop-color:#f14624"
         offset="0"
         id="stop381" /><stop
         style="stop-opacity:1;stop-color:#ed1c24"
         offset="0.344086"
         id="stop383" /><stop
         style="stop-opacity:1;stop-color:#e91167"
         offset="0.688172"
         id="stop385" /><stop
         style="stop-opacity:1;stop-color:#b31652"
         offset="1"
         id="stop387" /></linearGradient><clipPath
       clipPathUnits="userSpaceOnUse"
       id="clipPath399"><path
         d="m 7453.69,15056.9 c -373.66,187.4 -609.91,549.7 -603.66,931.4 5.8,354.4 218.55,594.7 281.7,661.1 -68.76,-98 -202.77,-319.4 -206.97,-620.9 -8.13,-584.9 479.84,-937.4 528.93,-971.6 z"
         id="path397" /></clipPath><linearGradient
       x1="0"
       y1="0"
       x2="1"
       y2="0"
       gradientUnits="userSpaceOnUse"
       gradientTransform="matrix(1267.82,-5976.86,5976.86,1267.82,7053.04,15970.3)"
       spreadMethod="pad"
       id="linearGradient409"><stop
         style="stop-opacity:1;stop-color:#f14624"
         offset="0"
         id="stop401" /><stop
         style="stop-opacity:1;stop-color:#ed1c24"
         offset="0.344086"
         id="stop403" /><stop
         style="stop-opacity:1;stop-color:#e91167"
         offset="0.688172"
         id="stop405" /><stop
         style="stop-opacity:1;stop-color:#b31652"
         offset="1"
         id="stop407" /></linearGradient><clipPath
       clipPathUnits="userSpaceOnUse"
       id="clipPath419"><path
         d="m 6926.2,15123 c 235.35,-441.7 634.18,-614.3 750.27,-659.7 -68.86,11.7 -507.86,93.7 -771.83,513.1 -247.23,392.8 -159.68,793.5 -142.29,866.7 -4.99,-137.7 4.09,-420.2 163.85,-720.1 z"
         id="path417" /></clipPath><linearGradient
       x1="0"
       y1="0"
       x2="1"
       y2="0"
       gradientUnits="userSpaceOnUse"
       gradientTransform="matrix(1267.82,-5976.86,5976.86,1267.82,6993.19,15957.6)"
       spreadMethod="pad"
       id="linearGradient429"><stop
         style="stop-opacity:1;stop-color:#f14624"
         offset="0"
         id="stop421" /><stop
         style="stop-opacity:1;stop-color:#ed1c24"
         offset="0.344086"
         id="stop423" /><stop
         style="stop-opacity:1;stop-color:#e91167"
         offset="0.688172"
         id="stop425" /><stop
         style="stop-opacity:1;stop-color:#b31652"
         offset="1"
         id="stop427" /></linearGradient></defs><sodipodi:namedview
     id="namedview27"
     pagecolor="#ffffff"
     bordercolor="#666666"
     borderopacity="1.0"
     inkscape:pageshadow="2"
     inkscape:pageopacity="0.0"
     inkscape:pagecheckerboard="0"
     showgrid="false"
     inkscape:zoom="0.29962499"
     inkscape:cx="-143.51273"
     inkscape:cy="418.85692"
     inkscape:window-width="1920"
     inkscape:window-height="1012"
     inkscape:window-x="1366"
     inkscape:window-y="0"
     inkscape:window-maximized="1"
     inkscape:current-layer="g33" /><g
     id="g31"
     inkscape:groupmode="layer"
     inkscape:label="ink_ext_XXXXXX"
     transform="matrix(1.3333333,0,0,-1.3333333,-785.09123,2287.7599)"><g
       id="g33"
       transform="scale(0.1)"><path
         d="m 14432.254,7736.4319 h -2770.21 v 45.5 h 2770.21 v -45.5"
         style="fill:#7e81a6;fill-opacity:1;fill-rule:nonzero;stroke:none"
         id="path81" /><path
         d="m 8658.3944,7322.9873 h -2770.21 v 45.5 h 2770.21 v -45.5"
         style="fill:#7e81a6;fill-opacity:1;fill-rule:nonzero;stroke:none"
         id="path83" /><path
         d="m 8679.3781,7703.2119 h -2770.21 v 45.5 h 2770.21 v -45.5"
         style="fill:#7e81a6;fill-opacity:1;fill-rule:nonzero;stroke:none"
         id="path85" /><path
         d="m 14411.466,7401.4043 h -2770.2 v 45.5 h 2770.2 v -45.5"
         style="fill:#7e81a6;fill-opacity:1;fill-rule:nonzero;stroke:none"
         id="path91" /><g
         id="g93"><g
           id="g95"
           clip-path="url(#clipPath99)"><path
             d="m 11129.2,10367.4 c 38.9,20 74.7,45.9 101.7,90.8 -31.2,-4.9 -55.7,-8.7 -83.8,-13.2 64.5,96 124,191.1 132.8,309.1 8.4,113.5 -9.9,225 -20,337.5 44.1,-112.8 63.2,-230.1 72.8,-349 14.2,-175.5 -14.8,-341.9 -113.3,-491.7 -51.9,-78.8 -117.7,-141.8 -215.8,-187.2 58.7,81.6 66,167.3 84.7,249.2 5.7,25.2 16.5,42 40.9,54.5"
             style="fill:url(#linearGradient109);fill-opacity:1;fill-rule:nonzero;stroke:none"
             id="path111" /></g></g><g
         id="g113"><g
           id="g115"
           clip-path="url(#clipPath119)"><path
             d="m 9169.56,9960.7 c 25.13,5.8 44.97,3.5 66.93,-12.9 35.07,-26.2 74.03,-47.1 126.17,-51.6 -18.04,25.8 -32.25,46.2 -48.57,69.6 114.5,-15.9 226.16,-27.8 336.03,16.1 105.68,42.1 197.86,107.5 294.55,165.9 -82.05,-89.1 -179.11,-157.7 -281.73,-218.4 -151.58,-89.7 -313.8,-136.6 -491.62,-113.7 -93.53,12 -179,43.6 -262.88,111.8 99.1,-17 179.29,14.1 261.12,33.2"
             style="fill:url(#linearGradient129);fill-opacity:1;fill-rule:nonzero;stroke:none"
             id="path131" /></g></g><g
         id="g133"><g
           id="g135"
           clip-path="url(#clipPath139)"><path
             d="m 11741.4,14292.3 c 140.7,-20.1 437.5,-42.9 776.2,86.2 379.5,144.7 597.8,398.7 684.1,511.7 -33.9,-80.1 -183.1,-407.1 -559.2,-581.5 -433.9,-201.3 -834.7,-43.8 -901.1,-16.4"
             style="fill:url(#linearGradient149);fill-opacity:1;fill-rule:nonzero;stroke:none"
             id="path151" /></g></g><g
         id="g153"><g
           id="g155"
           clip-path="url(#clipPath159)"><path
             d="m 12388.2,15442.1 c 41,68.1 272.5,467.6 135.3,969.5 -130.6,477.8 -500.9,703.4 -575.1,746.6 92.3,-40.8 496,-231.4 652.1,-670.6 85.2,-239.6 58.9,-446.9 52.5,-491.9 -41.2,-291.4 -199,-482.1 -264.8,-553.6"
             style="fill:url(#linearGradient169);fill-opacity:1;fill-rule:nonzero;stroke:none"
             id="path171" /></g></g><g
         id="g173"><g
           id="g175"
           clip-path="url(#clipPath179)"><path
             d="m 11930.9,14016.5 c 222.2,-109.4 443,-100 665.4,-24.3 l -0.6,-1 c -190.1,-209.3 -571,-200 -664.8,25.3"
             style="fill:url(#linearGradient189);fill-opacity:1;fill-rule:nonzero;stroke:none"
             id="path191" /></g></g><g
         id="g193"><g
           id="g195"
           clip-path="url(#clipPath199)"><path
             d="m 10964.9,9764.2 -3.1,6.8 3.9,0.6 z"
             style="fill:url(#linearGradient209);fill-opacity:1;fill-rule:nonzero;stroke:none"
             id="path211" /></g></g><g
         id="g213"><g
           id="g215"
           clip-path="url(#clipPath219)"><path
             d="m 12598.8,13993.2 -3.1,-2 c 0,0 0.6,1 0.6,1 0,-0.1 2.5,1 2.5,1"
             style="fill:url(#linearGradient229);fill-opacity:1;fill-rule:nonzero;stroke:none"
             id="path231" /></g></g><g
         id="g233"><g
           id="g235"
           clip-path="url(#clipPath239)"><path
             d="m 12546.3,15056.9 c 49.1,34.2 537.1,386.7 528.9,971.6 -4.2,301.5 -138.2,522.9 -206.9,620.9 63.1,-66.4 275.9,-306.7 281.7,-661.1 6.2,-381.7 -230,-744 -603.7,-931.4"
             style="fill:url(#linearGradient249);fill-opacity:1;fill-rule:nonzero;stroke:none"
             id="path251" /></g></g><g
         id="g253"><g
           id="g255"
           clip-path="url(#clipPath259)"><path
             d="m 12323.5,14463.3 c 116.1,45.4 515,218 750.3,659.7 159.8,299.9 168.8,582.4 163.8,720.1 17.4,-73.2 105,-473.9 -142.2,-866.7 -264,-419.4 -703,-501.4 -771.9,-513.1"
             style="fill:url(#linearGradient269);fill-opacity:1;fill-rule:nonzero;stroke:none"
             id="path271" /></g></g><g
         id="g273"><g
           id="g275"
           clip-path="url(#clipPath279)"><path
             d="m 9073.65,12172.7 c 152.74,-13 273.22,38 364.17,159.7 65.8,88 99.79,191 109.16,297.5 7.8,88.5 -6.76,178.9 -11.47,269.8 41.74,-137.3 65.17,-275.4 37.64,-417.2 -35.27,-181.6 -125.81,-322 -307.1,-387.4 -30.3,-10.9 -51.53,-25.8 -70.69,-50.4 -70.57,-90.8 -160.46,-152.9 -285.28,-184.1 16.2,53 29.19,95.4 45.25,147.9 -23.54,-26.7 -39.22,-45.2 -51.04,-70.1 -26.96,-56.8 -56.43,-115.3 -137.23,-104 -8.04,14.4 19.26,30.2 -10.93,56 -1.08,-102.3 -109.74,-98.2 -144.71,-178.3 -7.8,248.3 228.36,480.7 462.23,460.6"
             style="fill:url(#linearGradient289);fill-opacity:1;fill-rule:nonzero;stroke:none"
             id="path291" /></g></g><g
         id="g293"><g
           id="g295"
           clip-path="url(#clipPath299)"><path
             d="m 8263.72,14083.7 c -2.11,114.1 61.58,184.6 140.11,256.5 -136.57,34.1 -261.29,59.6 -382.45,96.7 -300.79,92.1 -577.65,226.6 -784.21,475.1 -92.05,110.7 -172.29,228.7 -209.62,360.1 282.85,-357.2 653.66,-555.2 1143.65,-570.2 -36.84,51.4 -72.88,58.4 -104.05,71.3 -350.38,145.1 -648.87,359 -853.15,682.2 -34.71,54.9 -79.62,134.1 -113.67,248.4 -99.6,334.5 7.05,634.7 63.83,766 -35.82,-381.8 38.13,-719.5 290.47,-1004.4 197.52,-223 428.23,-395.5 718.88,-480.1 -168.49,109 -328.29,225.8 -433.51,402.6 -105.77,177.7 -153.09,368.3 -138.19,578.6 46.38,-132 74.3,-266.2 153.77,-381.3 134.63,-194.9 322.79,-314 539.82,-395.2 191.89,-71.8 393.69,-111.8 585,-186.5 129.64,-50.5 221.22,-98.3 317.59,-166.2 71.83,-50.7 169.22,-120.6 258.14,-244.6 81.2,-113.3 120.39,-223 140.28,-296 13.27,19.9 26.9,39.4 40.78,58.7 0.03,0.1 0.04,0.1 0.04,0.1 61.44,85.1 111.64,141.9 137.98,172.5 223.39,258.8 355.69,412.1 339.19,580.6 -4,41.4 -19.3,106.9 -80.5,184 36.9,-31.4 88.2,-85.1 112.1,-163.8 41,-134.8 -23,-260.7 -86.2,-380.9 -79.67,-151.4 -131.13,-165.4 -254.41,-362.2 -3.87,-6.2 -77.5,-124.4 -127.92,-234.3 -32.5,-70.9 -71.9,-174.5 -97.51,-311.9 33.79,113.5 80.33,225.1 135.23,335.4 97.45,195.6 245.34,355.2 372.91,529.4 91.3,124.6 150.5,260.5 115.8,421.4 -32.3,150.2 -151.1,245.7 -287.08,229.1 10.15,-3.9 37.19,-15.9 53.86,-44.9 22.02,-38.3 10.13,-78.7 6.1,-90.3 -7.39,-21.2 -23.65,-47.1 -120.23,-102.7 -34.49,-19.9 -70.53,-37 -106.11,-55 -105.73,-53.2 -193.63,-122.9 -222.22,-253.9 -72.81,110 -66.69,218.5 -39.87,329.1 2.64,10.9 6.58,21.5 9.63,32.2 36.43,40.1 77.05,75.2 118,110.8 78.81,68.5 99.44,91.2 116.42,131.5 26.16,62.1 17.93,124.6 12.63,125.3 -5.04,0.8 -0.98,-55.2 -36.65,-109.9 -34.95,-53.6 -75.06,-55.4 -148.76,-118.6 -34.28,-29.4 -58.61,-57.2 -73.3,-75.4 -2.97,41.8 -2,109.6 28.02,183.2 16.85,41.3 41.51,81.2 100.58,144.2 110.16,117.3 144.23,118.4 274.48,229.8 101.66,87 176.3,189.5 188.2,337.6 60.2,-94.7 55.3,-185.4 18.3,-275.3 -20.1,-48.9 -12.8,-67.6 41.8,-64.4 92,5.4 179.2,23.5 259.3,73.6 101.1,63.4 153.4,162.6 209.1,285.4 38.2,-297.9 -77.7,-489.5 -328,-613.5 100.9,-73.9 212.6,-172.9 315.8,-304.7 26.2,-33.5 50.1,-66.8 71.7,-99.4 -40.8,10.3 -81.7,20.6 -122.5,30.9 1.8,-2.7 3.4,-5.5 5.2,-8.3 22.2,-24.3 45.2,-52.1 67.7,-83.7 50.4,-70.6 83.3,-138.1 104.9,-192.6 -16.8,8.8 -42.8,20.1 -75.4,26.6 9.7,-58.4 12.4,-119.1 9.2,-183.4 146.7,134.8 298.8,219.8 464.9,284.5 191.3,74.7 393.1,114.7 585,186.5 217,81.2 405.2,200.3 539.8,395.2 79.5,115.1 107.4,249.3 153.8,381.3 14.9,-210.3 -32.4,-400.9 -138.2,-578.6 -105.2,-176.8 -265,-293.6 -433.5,-402.6 290.6,84.6 521.3,257.1 718.9,480.1 252.3,284.9 326.3,622.6 290.4,1004.4 56.8,-131.3 163.5,-431.5 63.9,-766 -34.1,-114.3 -79,-193.5 -113.7,-248.4 -204.3,-323.2 -502.8,-537.1 -853.2,-682.2 -31.1,-12.9 -67.2,-19.9 -104,-71.3 490,15 860.8,213 1143.6,570.2 -37.3,-131.4 -117.5,-249.4 -209.6,-360.1 -206.5,-248.5 -483.4,-383 -784.2,-475.1 -121.1,-37.1 -245.9,-62.6 -382.4,-96.7 78.5,-71.9 142.2,-142.4 140.1,-256.5 -92.9,74.1 -176.7,148.9 -294.9,155.1 -6.5,-6.9 -13,-13.7 -19.5,-20.6 103.7,-108 151.5,-234.6 132.4,-390.3 -154.8,214.3 -225.4,272 -305.3,251.8 128.7,-198.6 157,-449.2 64.6,-607.4 -8.1,90.6 -29.2,172.2 -73.4,246.9 -74.4,125.9 -259.6,220.4 -391.2,198.6 -137.3,-22.8 -259.6,-151.2 -281.8,-307.1 -23.3,-163.4 35.4,-301.6 146.7,-420.2 75.7,-80.7 173.1,-129.8 281.2,-189.3 -224.7,-17.2 -386,77.9 -531.5,230.4 -9.3,-112.3 42,-188.1 104.9,-273 -113.4,11.2 -191.1,59.9 -269.3,113.2 -78.6,53.5 -115.2,139.8 -175.2,213.6 -12.7,-48.7 0.5,-87.9 15.7,-123.7 32.6,-51.4 78.4,-113.4 141.4,-174.5 184.3,-178.6 329.8,-170.3 692.4,-311.6 434.7,-169.6 713.2,-363.3 796.5,-437.3 80,-71.3 152.5,-151.3 252.5,-218.1 -171.4,-49.7 -328.2,-30.4 -480.6,32.8 -28,11.7 -49.3,42.5 -66,73.6 -48.9,90.6 -118.3,163.8 -214.1,234.8 35.5,-77.6 90.7,-130.1 92.8,-215.8 -84.1,69.5 -214.4,170.1 -385.3,274.1 -121.5,73.9 -211.8,118.1 -288.7,156.6 10.6,-7.5 21.1,-15 31.7,-22.5 177.4,-105 328.2,-240.9 468.4,-388.6 214.6,-226.3 359.4,-487.8 390.1,-803.6 16.1,-166.2 -4.7,-326.2 -89.4,-497.8 -9.8,177.7 -94.9,303.9 -160.1,437.6 -20.1,41 -24,76.2 -4.3,120.5 31.5,70.9 52.1,146.4 39.4,238.1 -37.5,-41.3 -67,-73.8 -100.9,-111.2 -13.3,152.8 -29.9,302 -87.5,439.8 -97.3,107.4 -213.8,195.3 -335,278.4 -207.8,142.6 -301.3,186 -456.2,312.3 -88.6,72.3 -213.1,187.6 -340,361.9 247.2,-393.4 470.2,-681.9 634.8,-879.2 53.8,-64.5 266.9,-308.9 391,-617.5 76,-188.8 116.8,-382.2 69.5,-606.4 -5.4,172.3 -56.7,309.4 -130.7,439.3 -75.9,133.5 -169.7,253.9 -268.4,371 -102,121 -203,243 -308.9,370.8 59.3,-87.9 119.9,-178.2 181.9,-271 24.2,-36.2 127.9,-192.3 245.4,-406.6 101.3,-184.6 144.9,-287.7 154.1,-417.1 5.5,-77 -1.2,-157.1 -22.1,-240.5 -27.1,59 -54.2,118 -89.1,194 -12.7,-102.9 2.3,-183.8 26,-260.3 28,-90.6 27.1,-176.2 1.9,-266.2 -30.3,-108.3 -31.4,-220.8 -14.3,-330.4 10.2,-65.2 0,-133.9 21.7,-183.9 -12.3,10.6 -37,28.7 -57.8,50.5 -21.3,22.3 -40,47.4 -57.7,72.8 -195.2,281.2 -159.3,967.3 -159.3,967.3 8.5,220.8 27,309.7 -11.5,472.6 -25.2,106.9 -59.6,180.4 -114.9,296.1 -63.2,131.9 -138.6,287.3 -225.4,462.1 7.9,-28.8 12.5,-43.2 15.4,-57.9 31.8,-160.7 101.7,-310.7 87.5,-484.6 -15.1,-185.9 -31.7,-369 -102,-542.1 -49.1,-121.1 -97.1,-239.1 -106.9,-373.3 -8.3,-113.5 -58.2,-220.2 -119.4,-316.9 -144.02,-227.7 -355.6,-339.4 -635.27,-359.3 78.9,123.2 120.22,246.2 145.35,374.5 8.32,42.5 30.42,52.1 69.84,55.5 92.37,8 173.86,42.9 244.53,117.1 -64.9,-4.3 -121.2,-12.8 -177.1,-10.7 -87.26,3.3 -91.39,16.1 -46.47,93.9 67.05,116 180.31,168.8 295.63,219.5 62.59,27.5 123.19,54.2 151.79,126.6 84.2,212.7 120,431 103.6,660 -23.5,328 -176.7,601.2 -351.41,867 -45.97,69.9 -91.93,139.9 -134.87,211.5 -2.57,3.3 -5.13,6.7 -7.7,10.1 1.56,-3.9 3.12,-7.8 4.69,-11.7 62.77,-158.2 94.85,-237.1 109.06,-319.2 50.59,-292.3 -5.15,-554.2 -239.56,-755.5 -39.18,-33.6 -62.52,-68 -77.2,-115.8 -54.07,-176.2 -153.38,-320.6 -322.71,-438.3 -5.88,88.6 -10.6,159.6 -16.42,247.4 -20.05,-53.5 -33.01,-90.2 -36.53,-134.2 -8.04,-100.6 -18.91,-204.9 -146.43,-234 -20.25,17 11.65,56.2 -48.28,77.6 56.65,-153.8 -108.54,-209.6 -115.31,-349.5 -153.11,367.6 68.43,850.3 430.33,953.6 236.35,67.4 387.82,212.5 454.81,446.7 48.46,169.4 40.72,343.1 -5.87,507.9 -36.01,127.5 -101.92,246.4 -158.28,369.8 -40.33,-17.6 -84.59,-30.6 -136.37,-35.7 18.9,22.1 38.77,49.4 56.54,82.4 52.09,96.9 57.93,190.7 56.54,245.2 -28.72,-48.2 -132.31,-208.1 -333.53,-266.6 -81.49,-23.7 -154.27,-23.5 -206.08,-18.4 108.06,59.5 205.5,108.6 281.21,189.3 84.09,89.7 138.07,190.5 149.42,304.9 -4.01,53.4 -8.01,106.7 -12.01,160 -36.9,135.2 -148.61,241.9 -272.56,262.4 -131.55,21.8 -316.75,-72.7 -391.2,-198.6 -44.16,-74.7 -65.3,-156.3 -73.36,-246.9 -92.4,158.2 -64.13,408.8 64.54,607.4 -79.83,20.2 -150.45,-37.5 -305.26,-251.8 -19.15,155.7 28.74,282.3 132.39,390.3 -6.47,6.9 -12.98,13.7 -19.48,20.6 -118.23,-6.2 -202,-81 -294.89,-155.1"
             style="fill:url(#linearGradient309);fill-opacity:1;fill-rule:nonzero;stroke:none"
             id="path311" /></g></g><g
         id="g313"><g
           id="g315"
           clip-path="url(#clipPath319)"><path
             d="m 7482.43,14378.5 c 338.7,-129.1 635.43,-106.3 776.14,-86.2 -66.32,-27.4 -467.16,-184.9 -901.11,16.4 -376.08,174.4 -525.28,501.4 -559.18,581.5 86.33,-113 304.6,-367 684.15,-511.7"
             style="fill:url(#linearGradient329);fill-opacity:1;fill-rule:nonzero;stroke:none"
             id="path331" /></g></g><g
         id="g333"><g
           id="g335"
           clip-path="url(#clipPath339)"><path
             d="m 7476.52,16411.6 c -137.19,-501.9 94.3,-901.4 135.27,-969.5 -65.8,71.5 -223.55,262.2 -264.83,553.6 -6.37,45 -32.63,252.3 52.51,491.9 156.09,439.2 559.8,629.8 652.13,670.6 -74.22,-43.2 -444.51,-268.8 -575.08,-746.6"
             style="fill:url(#linearGradient349);fill-opacity:1;fill-rule:nonzero;stroke:none"
             id="path351" /></g></g><g
         id="g353"><g
           id="g355"
           clip-path="url(#clipPath359)"><path
             d="m 8069.13,14016.5 c -93.8,-225.3 -474.73,-234.6 -664.88,-25.3 l -0.58,1 c 222.38,-75.7 443.26,-85.1 665.46,24.3"
             style="fill:url(#linearGradient369);fill-opacity:1;fill-rule:nonzero;stroke:none"
             id="path371" /></g></g><g
         id="g373"><g
           id="g375"
           clip-path="url(#clipPath379)"><path
             d="m 7404.25,13991.2 -3.01,2 c 0,0 2.48,-1.1 2.45,-1 -0.02,0 0.56,-1 0.56,-1"
             style="fill:url(#linearGradient389);fill-opacity:1;fill-rule:nonzero;stroke:none"
             id="path391" /></g></g><g
         id="g393"><g
           id="g395"
           clip-path="url(#clipPath399)"><path
             d="m 7453.69,15056.9 c -373.66,187.4 -609.91,549.7 -603.66,931.4 5.8,354.4 218.55,594.7 281.7,661.1 -68.76,-98 -202.77,-319.4 -206.97,-620.9 -8.13,-584.9 479.84,-937.4 528.93,-971.6"
             style="fill:url(#linearGradient409);fill-opacity:1;fill-rule:nonzero;stroke:none"
             id="path411" /></g></g><g
         id="g413"><g
           id="g415"
           clip-path="url(#clipPath419)"><path
             d="m 6926.2,15123 c 235.35,-441.7 634.18,-614.3 750.27,-659.7 -68.86,11.7 -507.86,93.7 -771.83,513.1 -247.23,392.8 -159.68,793.5 -142.29,866.7 -4.99,-137.7 4.09,-420.2 163.85,-720.1"
             style="fill:url(#linearGradient429);fill-opacity:1;fill-rule:nonzero;stroke:none"
             id="path431" /></g></g><path
         d="m 6210.66,4039.3 1.03,0.7 c 0,0 -0.85,-0.4 -0.83,-0.4 l -0.2,-0.3"
         style="fill:#393536;fill-opacity:1;fill-rule:nonzero;stroke:none"
         id="path489" /><text
         xml:space="preserve"
         style="font-size:1440px;line-height:1.25;font-family:sans-serif;stroke-width:7.5"
         x="5814.8979"
         y="-8315.7314"
         id="text7751"
         transform="scale(1,-1)"><tspan
           sodipodi:role="line"
           id="tspan7749"
           style="font-size:1440px;fill:#488bd1;fill-opacity:1;stroke-width:7.5"
           x="5814.8979"
           y="-8315.7314">SACHANEWS</tspan></text><text
         xml:space="preserve"
         style="font-size:560px;line-height:1.25;font-family:sans-serif;stroke-width:7.5"
         x="8985.9834"
         y="-7429.3433"
         id="text23311"
         transform="scale(1,-1)"><tspan
           sodipodi:role="line"
           id="tspan23309"
           style="stroke-width:7.5"
           x="8985.9834"
           y="-7429.3433"><tspan
   style="fill:#378d8c;fill-opacity:1"
   id="tspan58769">NOTICIAS</tspan> </tspan></text></g></g></svg>
